<?xml version="1.0" standalone="no"?>
<!DOCTYPE svg PUBLIC "-//W3C//DTD SVG 20010904//EN"
 "http://www.w3.org/TR/2001/REC-SVG-20010904/DTD/svg10.dtd">
<svg version="1.0" xmlns="http://www.w3.org/2000/svg"
 width="512.000000pt" height="512.000000pt" viewBox="0 0 512.000000 512.000000"
 preserveAspectRatio="xMidYMid meet">
<metadata>
Created by potrace 1.14, written by Peter Selinger 2001-2017
</metadata>
<g transform="translate(0.000000,512.000000) scale(0.100000,-0.100000)"
fill="#000000" stroke="none">
<path d="M1900 3279 c-85 -4 -198 -12 -250 -18 -710 -79 -895 -92 -1021 -76
l-57 7 -7 -32 c-4 -17 -5 -34 -2 -36 14 -14 164 -25 257 -20 58 4 283 29 500
56 441 55 580 66 885 76 286 8 451 -11 668 -77 189 -58 347 -137 496 -249 75
-57 101 -70 101 -52 0 12 -114 102 -195 155 -167 107 -387 195 -591 236 -179
36 -446 47 -784 30z"/>
<path d="M715 3021 c-44 -27 -98 -65 -120 -85 l-40 -35 36 -1 c24 0 42 7 55
21 10 12 48 42 84 67 36 25 76 54 89 64 l24 18 -25 0 c-13 0 -60 -22 -103 -49z"/>
<path d="M283 2867 c-9 -29 -8 -37 3 -41 39 -15 554 -26 1494 -31 1049 -5
1367 -12 1905 -40 399 -21 540 -38 752 -91 181 -44 323 -115 368 -184 31 -47
51 -38 23 11 -54 96 -227 179 -493 238 -345 76 -780 96 -2840 131 -612 11
-1060 25 -1150 36 l-51 6 -11 -35z"/>
<path d="M342 2770 c15 -4 66 -11 113 -15 47 -4 85 -11 85 -16 0 -14 -79 -50
-144 -65 l-61 -14 75 3 c52 3 88 10 117 25 39 20 83 64 83 83 0 5 -66 9 -147
8 -94 0 -138 -4 -121 -9z"/>
<path d="M1858 2631 c-91 -3 -169 -9 -173 -13 -10 -9 104 -15 1030 -53 955
-39 917 -38 893 -24 -31 18 -300 58 -503 74 -217 18 -945 28 -1247 16z"/>
<path d="M4440 2580 l-55 -28 55 -26 c80 -37 165 -56 240 -55 36 1 54 4 40 6
-95 17 -165 34 -209 54 l-52 22 33 28 c43 37 19 36 -52 -1z"/>
<path d="M456 2298 c-35 -35 -38 -45 -87 -286 -27 -131 -21 -159 38 -174 39
-10 139 4 187 27 123 59 207 211 177 322 -25 92 -100 142 -214 143 -65 0 -71
-2 -101 -32z m173 -62 c107 -56 77 -232 -51 -297 -46 -24 -148 -38 -148 -21 0
12 59 299 65 320 6 17 99 16 134 -2z"/>
<path d="M950 2322 c-38 -17 -70 -46 -83 -75 -20 -43 -90 -374 -83 -392 7 -18
52 -20 63 -2 4 6 15 44 23 82 l16 70 58 3 c85 4 100 -11 91 -100 l-7 -68 31 0
c38 0 49 19 57 99 5 48 3 66 -11 87 -17 26 -16 27 13 58 73 74 69 191 -8 231
-29 15 -132 20 -160 7z m122 -89 c27 -24 23 -68 -11 -105 -24 -27 -36 -32 -90
-36 -69 -5 -68 -7 -50 78 6 28 17 57 26 65 20 21 101 20 125 -2z"/>
<path d="M1271 2316 c-16 -19 -105 -441 -98 -461 10 -24 56 -19 67 8 16 37 99
439 93 453 -7 18 -47 18 -62 0z"/>
<path d="M1399 2314 c-11 -14 -10 -50 8 -228 12 -116 25 -219 28 -228 9 -22
67 -24 88 -4 26 26 238 436 235 454 -2 11 -13 17 -33 17 -28 0 -34 -8 -124
-182 -52 -101 -96 -181 -98 -180 -2 2 -10 75 -18 163 -20 203 -20 204 -49 204
-13 0 -30 -7 -37 -16z"/>
<path d="M1852 2309 c-18 -12 -40 -36 -49 -53 -18 -34 -73 -282 -73 -328 0
-65 48 -98 142 -98 68 0 103 18 103 50 0 24 -4 25 -60 28 -106 4 -109 5 -102
63 3 27 9 54 12 59 3 6 37 10 75 10 76 0 114 11 123 34 15 38 -2 46 -90 46
l-85 0 7 48 c12 78 16 82 98 82 82 0 120 18 115 53 -3 20 -9 22 -93 25 -77 2
-95 -1 -123 -19z"/>
<path d="M2170 2158 c-102 -133 -130 -177 -128 -197 3 -26 4 -26 104 -29 l101
-3 -5 -44 c-5 -45 -4 -45 26 -45 34 0 42 9 51 54 6 26 12 32 40 36 59 9 69 70
12 78 -27 4 -27 2 8 165 20 97 26 138 18 146 -6 6 -30 11 -54 11 l-42 0 -131
-172z m118 -45 l-21 -103 -59 0 -60 0 29 38 c56 78 128 170 130 169 0 -1 -8
-48 -19 -104z"/>
<path d="M2620 2314 c-42 -18 -86 -59 -106 -96 -18 -34 -86 -348 -80 -365 7
-17 51 -17 65 1 7 8 17 41 23 74 l11 59 72 6 c122 9 201 68 225 168 10 41 9
53 -8 93 -13 28 -31 50 -51 60 -38 20 -105 20 -151 0z m115 -84 c10 -11 18
-33 18 -49 0 -65 -61 -111 -148 -111 -39 0 -45 3 -45 21 0 49 24 110 52 134
38 32 97 34 123 5z"/>
<path d="M2975 2311 c-62 -38 -68 -53 -116 -284 -21 -102 -21 -111 -6 -142 18
-38 60 -55 139 -55 78 0 117 25 102 65 -5 11 -23 15 -79 15 -91 0 -99 8 -84
79 l11 51 77 0 c87 0 124 17 119 53 -3 20 -10 22 -91 25 l-88 3 7 37 c14 79
22 87 94 90 87 3 107 9 120 33 20 37 -3 49 -94 49 -61 0 -88 -5 -111 -19z"/>
<path d="M3395 2317 c-60 -24 -93 -47 -138 -97 -103 -114 -103 -269 0 -347 33
-26 44 -28 122 -28 63 0 96 5 122 18 207 103 250 368 74 448 -46 21 -134 24
-180 6z m144 -81 c106 -55 77 -232 -48 -295 -62 -32 -103 -35 -154 -13 -122
54 -95 230 48 305 38 20 117 21 154 3z"/>
<path d="M3900 2323 c-38 -13 -93 -60 -115 -97 -22 -39 -85 -305 -85 -361 0
-21 5 -25 30 -25 33 0 44 15 54 75 13 75 13 75 65 75 75 0 142 25 183 67 87
90 90 202 5 253 -31 19 -102 26 -137 13z m100 -93 c31 -31 26 -74 -14 -117
-31 -34 -38 -37 -101 -41 l-67 -4 7 43 c10 62 33 107 64 124 38 21 88 18 111
-5z"/>
<path d="M4198 2313 c-15 -19 -88 -346 -88 -396 0 -41 38 -74 95 -83 83 -12
148 17 132 60 -5 12 -20 16 -65 16 -91 0 -91 -1 -47 209 21 98 35 186 32 195
-8 21 -40 20 -59 -1z"/>
<path d="M4523 2311 c-18 -11 -39 -31 -48 -44 -24 -37 -87 -341 -76 -369 17
-45 46 -61 123 -65 86 -5 123 10 123 47 0 24 -3 25 -78 30 -49 3 -81 10 -86
18 -4 7 -3 35 2 63 l10 49 73 0 c97 0 126 11 122 48 -3 27 -3 27 -91 30 l-87
3 6 27 c4 15 12 43 18 62 l11 35 81 5 c87 5 117 20 112 54 -3 19 -10 21 -93
24 -75 2 -95 -1 -122 -17z"/>
</g>
</svg>
